<?xml version="1.0"?><svg width="640" height="480" xmlns="http://www.w3.org/2000/svg" xmlns:xlink="http://www.w3.org/1999/xlink">
 <title>Orange Yellow Crown</title>
 <defs>
  <filter id="path16_blur">
   <feGaussianBlur stdDeviation="1.1"/>
  </filter>
  <filter id="path18_blur">
   <feGaussianBlur id="svg_5" stdDeviation="1.1"/>
  </filter>
 </defs>
 <metadata id="metadata2401">image/svg+xmlCrown with cross on the topcrown religious cross king</metadata>
 <g display="inline">
  <title>Layer 1</title>
  <rect fill="#bfbfbf" stroke="#000000" stroke-width="5" x="262.905518" y="215.637817" width="0" height="19" id="svg_2"/>
  <rect fill="#bfbfbf" stroke="#000000" stroke-width="5" x="202.905518" y="522.637817" width="0" height="1" id="svg_3"/>
  <image fill="#ff0000" xlink:href="http://i283.photobucket.com/albums/kk281/fjachel/Black-background.gif" id="svg_1" height="542.000007" width="1222.000013" y="-51.500008" x="-278.75"/>
  <g id="svg_6">
   <path filter="url(#path16_blur)" d="m494.658447,110.052422c-38.029053,-13.181999 -76.835083,-19.443947 -116.007813,-22.554123c10.841187,-24.31617 -0.085693,-45.100067 -21.03894,-52.428806l-0.996216,-10.903446l9.11377,0l8.352539,7.54232c14.132935,-14.640312 12.048706,-28.55014 -1.137695,-41.936905l-3.797729,6.710876l-10.257446,0.41132l0,-5.446102l6.451782,-8.386932c-16.274902,-8.934647 -33.117554,-9.073227 -50.528076,-0.411331l9.113647,5.868423l3.417236,8.80706l-10.63208,0l-7.214844,-6.290764c-11.697998,12.863277 -11.442871,28.242622 0.755249,46.140251l6.358032,-12.046993l8.834839,0.310131l-0.615723,9.957417c-25.450317,12.612309 -30.945679,30.261822 -16.478027,52.952305c-42.675537,1.608093 -83.318726,10.698891 -122.585083,24.901268c-15.535645,-18.911652 -32.354492,-14.255386 -45.32959,-42.601173c2.693848,34.55735 -7.262695,44.576363 -6.366089,65.617401c-14.515503,7.382599 -27.327271,17.907501 -38.425537,31.577805c-20.720093,-21.256577 -39.212585,-28.991135 -57.643311,-36.293686c15.940063,25.768768 24.19104,52.471497 36.293579,78.710052c-1.346924,11.074829 1.914795,19.400177 15.372192,21.678925l34.579956,56.559601c-4.124512,11.626862 0.996338,21.995605 11.526611,23.568329l14.515503,21.678864c59.775269,-10.258759 119.986938,-18.164032 179.762085,-18.533508c69.161987,-0.413513 136.199951,6.693268 207.073486,16.168976l13.658691,-24.976074c11.239746,-0.780823 18.213501,-11.307922 12.375488,-24.032379l33.725098,-55.143097c15.800781,-0.78302 17.793213,-8.635498 15.372314,-24.505325l31.164795,-75.410721c-17.645752,14.29718 -39.142822,19.634186 -52.942993,34.404236c-10.849243,-12.253723 -23.730713,-21.523621 -37.997192,-28.751328c1.992554,-28.429382 -7.969971,-39.4272 -8.109375,-62.687592c-14.866089,22.211205 -22.479492,9.546097 -49.727051,39.781311l0.013916,-0.006584zm16.408325,106.426765c5.501343,-8.987442 -0.007935,-9.889267 -4.80188,-4.484924c-15.208984,23.680511 -9.287109,39.9617 14.047119,48.579559c31.997681,4.363953 41.111328,-10.88562 49.517822,-27.355957c3.213867,-6.891235 0.832764,-11.068207 -3.682129,-2.036804c-9.876953,10.920837 -8.235107,20.422928 -29.341675,23.997238c4.708252,-15.251785 7.493774,-41.47496 24.726929,-69.712967c5.28418,-8.224167 11.636353,-7.518097 17.978516,-7.210144c-9.681641,-11.382767 -22.477539,-20.275604 -36.1521,-28.482178l-4.491211,8.171371c20.112549,2.610901 27.26355,16.573715 13.60498,39.726303c-6.266479,20.733093 -32.938232,37.196854 -32.525757,56.372635c-15.029541,-6.134598 -17.528198,-16.289963 -8.872681,-37.546555l-0.007935,-0.017578zm-133.404419,-104.820877c1.898926,7.174744 0.52002,14.409126 -4.134521,21.702866c29.76416,-12.697868 53.152222,-3.033203 53.285767,28.905365c-1.081909,22.897476 -26.922852,44.761124 -20.516846,75.306473c-22.891968,-3.042023 -29.351685,-13.918869 -28.144287,-40.597351c-4.110474,-12.585922 -17.372681,-8.787262 -13.216309,10.412735c8.848755,43.417175 61.969116,57.087433 96.885742,26.128616c7.766846,-7.027634 12.235962,-15.550949 13.401611,-25.578751c0.063843,-12.196579 -8.693359,-10.652496 -12.568726,5.560516c-1.22937,18.480713 -14.314209,26.720261 -35.484619,27.941071c10.594238,-20.860672 3.612427,-41.430984 5.425659,-62.144287c5.744385,-32.538147 32.884277,-53.76902 56.435791,-35.74292l0.546021,-15.010681c-32.78479,-12.073425 -78.012695,-17.304008 -111.915283,-16.89267l0,0.009018l0,0zm-71.317871,-0.824852c-1.799316,7.207756 -0.320801,14.418137 4.435303,21.634926c-29.933472,-12.201202 -53.190063,-2.140411 -52.871216,29.798157c1.3927,22.879807 25.302856,47.699722 19.317383,78.357239c22.844116,-3.429123 32.884399,-19.925827 31.336182,-44.059464c3.937134,-12.654114 14.212646,-8.60907 11.829468,9.794662c-8.240967,43.551361 -61.167969,58.116852 -96.511108,27.751877c-7.860474,-6.89122 -12.453125,-15.346344 -13.752319,-25.347717c-0.235107,-12.19223 8.553955,-10.799881 12.646484,5.34491c1.48645,18.465317 14.678833,26.480545 35.865112,27.349365c-10.889038,-20.682465 -4.186157,-41.362793 -6.280396,-62.040878c-6.194702,-32.434784 -28.213867,-47.016327 -56.925903,-34.790497l-0.755127,-15.001923c39.818237,-11.873215 77.488647,-18.291336 111.674194,-18.773056l-0.008057,-0.017601l0,0zm-130.166626,108.584312c-2.265503,-8.094345 1.087891,-9.58783 4.80188,-4.484879c14.312256,23.181198 5.409668,37.812714 -14.049072,48.57077c-31.997803,4.36615 -42.247192,-10.46553 -50.661621,-26.935867c-3.213867,-6.891235 -0.450195,-11.06601 4.062744,-2.036804c9.876953,10.920837 7.099365,23.78392 38.082886,26.935867c-21.807983,-22.802872 -15.471802,-44.831512 -32.713013,-73.071701c-5.28418,-8.224182 -11.634277,-7.518127 -17.978394,-7.201401c11.48877,-10.722855 23.714722,-19.829071 36.154053,-28.482117l3.735962,6.486496c-20.112427,5.551697 -26.502441,18.249771 -12.84375,41.402374c6.266479,20.733109 32.940186,37.196854 32.52771,56.381424c11.984985,-5.721039 17.526123,-16.289948 8.872681,-37.54657" id="path16" fill-rule="evenodd" fill="#ff7f00" stroke="#edc812" stroke-width="4"/>
   <path filter="url(#path18_blur)" d="m138.460938,143.078827l-41.781372,32.245041l4.062744,6.120209l41.78064,-33.466644l-4.062012,-4.898605zm410.036133,-2.31131c13.67395,5.163574 26.338867,14.254669 37.996948,27.263321l-4.553101,5.446228c-12.032959,-13.487534 -24.056885,-21.599808 -36.089844,-27.261093l2.653931,-5.448456l-0.007935,0zm-175.544067,-47.823296l1.138062,10.06105l4.932861,0.413483c38.364014,0.901237 76.76709,6.211136 112.095093,20.552254l1.890991,-6.290947c-36.697998,-13.755806 -77.296021,-21.057732 -120.071045,-24.74472l0.014038,0.008881zm-183.062012,26.462936c33.530029,-13.368927 74.975952,-21.436844 119.77002,-26.530563c1.082031,3.771225 1.812988,6.382942 0.084961,10.163048c-40.76001,2.354538 -78.78894,9.75399 -117.682983,22.468887l-2.179932,-6.101372l0.007935,0zm126.06604,-35.690392l25.078003,-33.131775l26.213013,34.394409c15.458008,-17.114685 5.152954,-44.677422 -26.213013,-44.032791c-28.634033,1.649712 -39.842041,23.686729 -25.078003,42.779022l0,-0.008865zm-5.696045,-80.954754l5.313965,2.775879l19.373047,0.153969l-0.755005,-13.841824l-6.546021,-6.752533c7.07605,-4.372833 18.704102,-3.574371 28.067017,-0.413704l-6.312988,7.175102l-0.045044,13.841721l14.865967,0.103653l7.976074,-5.972008c3.984985,7.896637 3.984985,15.166199 0,21.806427l-5.697021,-4.192368l-17.092041,0.41127l0,8.807083l2.274048,9.640717l-19.755981,0.413704l3.036987,-18.867828l-19.372925,0.831181l-5.31604,4.18605c-2.839966,-7.337837 -2.839966,-14.048908 0,-20.132877l-0.014038,0.026386zm-162.009033,94.667324c17.239014,11.813675 41.430054,13.534103 43.554077,57.102859c28.595947,-22.587509 45.781982,1.684998 52.948975,22.056534c5.232056,14.86322 -3.790039,32.923462 4.755981,58.484085c-11.432983,-2.199356 -18.508057,-10.817078 -21.231934,-25.844376c-6.165039,-25.035141 -31.218994,-18.832916 -23.412109,7.810715c16.508057,34.522003 45.51709,41.379425 71.465088,38.216766c28.50293,-3.47084 53.339966,-24.847824 51.033936,-59.852036c-7.797974,-18.22319 -16.328003,-18.831772 -25.588989,-1.794739c-5.442017,12.620682 2.714966,33.052094 -16.330933,37.865356c1.268921,-24.437622 -22.500977,-48.880844 -22.322021,-67.919937c3.984985,-32.358154 25.224976,-36.164841 58.259033,-20.431396c-18.1521,-39.970451 4.349976,-62.208778 20.685913,-81.144775c17.421021,20.837128 35.024048,38.466164 20.687988,80.541733c39.072998,-23.37014 68.064087,2.362289 57.56604,26.051666c-8.553955,19.305161 -23.723022,48.999481 -21.084961,62.893845c-28.674072,-6.204437 0.356934,-49.087036 -30.487061,-49.285477c-21.411987,5.80986 -16.875,37.865356 7.074951,58.305634c13.426025,11.213928 29.762085,16.02388 49.004028,14.418701c23.605103,-0.455597 42.052002,-16.144699 56.956055,-42.256241c5.176025,-16.882996 -12.679077,-27.502747 -19.947021,-12.561905c-4.996948,19.083405 -12.484985,31.971252 -26.35498,35.820068c5.136963,-20.354919 1.775024,-44.789246 5.432983,-64.739532c11.494995,-28.268768 28.914063,-34.772537 52.248047,-19.496918c2.203979,-46.749138 31.429932,-47.393204 45.300049,-64.990082c2.661865,22.82917 18.226929,34.807999 -10.431152,72.55249c22.651123,3.291245 32.356079,15.429703 13.583008,47.041809c-7.254883,13.472 -20.05896,24.091797 -26.208008,37.975067c-12.069946,-13.850037 1.730103,-20.346054 2.601074,-30.527939c2.599976,-16.659058 -15.124023,-14.270157 -24.347046,9.614349c-3.160034,27.64241 7.295044,45.771393 47.704956,42.962372c15.691162,-6.228851 27.381104,-16.437378 33.218994,-32.461212c2.662109,-8.95256 -0.950928,-14.238052 -8.639893,-10.946838c-7.994019,9.424789 -18.220947,30.29628 -24.004028,28.300934c3.744019,-13.771332 9.330933,-28.360779 13.083008,-42.134308c7.838989,-25.046265 18.953003,-32.012283 33.353027,-20.904755c3.633911,-20.981247 23.254028,-31.79834 36.719971,-38.542664l-21.052979,51.071335c-19.023071,-3.213638 -18.867065,13.634964 -14.858032,22.672867l-33.11792,56.201599c-17.364014,2.586243 -23.848145,12.587402 -12.905029,22.793701l-7.24707,19.881561c-128.671997,-29.960388 -256.651001,-30.139923 -383.868896,2.397766l-10.343018,-16.221191c13.969971,-11.616364 5.985962,-24.840057 -10.345093,-25.242462l-35.38855,-54.69841c9.890747,-11.273804 1.671631,-26.230179 -15.784729,-24.039688c-7.029602,-17.028214 -9.627869,-30.810638 -21.100647,-51.106812c18.516357,5.800964 35.078125,17.847427 39.06311,39.686676c10.157715,-14.216949 21.054932,-9.208618 32.66687,15.018433c5.261963,15.62146 4.241943,28.398422 15.785034,46.879929c-16.331055,-4.004028 -17.419067,-18.835114 -26.12793,-28.251007c-6.352051,-6.409515 -15.427979,0.395752 -9.255127,11.420135c24.407959,38.868546 62.343994,45.279221 80.578979,6.606857c4.171997,-17.425064 -1.088013,-30.85498 -15.785034,-40.271973c-9.796875,0 -11.432861,7.81076 -6.528931,18.025909c5.075073,7.810715 8.521973,13.223694 2.171997,25.244659c-13.161011,-24.76358 -25.964966,-32.615341 -32.666992,-45.762543c-11.160034,-21.909058 -8.421021,-36.806702 19.598022,-38.982758c-25.495972,-29.545776 -14.243042,-42.770592 -10.343018,-65.513298l0.007935,0.008858l0,0zm357.476074,71.615799c6.257935,1.528671 9.75293,6.606888 7.774902,11.304825c-1.976929,4.692459 -8.701904,7.278687 -14.965942,5.749985c-6.258911,-1.530869 -9.754028,-6.606857 -7.776978,-11.299286c1.979004,-4.691315 8.694946,-7.278641 14.959961,-5.746658l0.008057,-0.008865zm1.656982,-4.922989c9.379028,2.353409 14.61792,10.173035 11.652954,17.398468c-2.958984,7.225433 -13.036987,11.202835 -22.42395,8.848312c-9.379028,-2.353394 -14.616943,-10.173035 -11.651978,-17.397354c2.958984,-7.226547 13.036987,-11.205063 22.414917,-8.849426l0.008057,0zm91.088013,41.421509c4.677979,0 8.5,3.573914 8.5,7.955963c0,4.382034 -3.822021,7.955963 -8.5,7.955963c-4.678101,0 -8.5,-3.573929 -8.5,-7.955963c0,-4.38205 3.821899,-7.955963 8.5,-7.955963zm-46.963013,79.191513c4.676025,0 8.498047,3.573914 8.498047,7.957092c0,4.382019 -3.822021,7.955963 -8.498047,7.955963c-4.678955,0 -8.5,-3.573944 -8.5,-7.955963c0,-4.383179 3.821045,-7.957092 8.5,-7.957092zm-80.611084,-22.992126c8.350098,0.824768 15.161133,7.922699 15.161133,15.783325c0,7.870605 -6.811035,13.611694 -15.161133,12.785858c-8.344971,-0.824738 -15.154907,-7.922699 -15.154907,-15.792206c0,-7.861694 6.809937,-13.610596 15.154907,-12.776978zm-0.398926,4.63147c5.838013,0.576416 10.602051,5.541565 10.602051,11.039917c0,5.499451 -4.764038,9.513428 -10.602051,8.936981c-5.835938,-0.576416 -10.599976,-5.542664 -10.599976,-11.042084c0,-5.498352 4.764038,-9.51123 10.599976,-8.934814zm-127.177979,-119.206314c11.199951,0 20.329956,7.33075 20.329956,16.324295c0,8.987991 -9.130005,16.325394 -20.329956,16.325394c-11.199951,0 -20.337036,-7.328552 -20.337036,-16.325394c0,-8.986908 9.137085,-16.324295 20.337036,-16.324295zm-0.560059,4.072754c8.445068,0 15.341064,5.318771 15.341064,11.840256c0,6.513779 -6.888062,11.832504 -15.341064,11.832504c-8.44397,0 -15.339966,-5.318726 -15.339966,-11.832504c0,-6.521484 6.888062,-11.840256 15.339966,-11.840256zm0.187988,98.791534c9.978027,0 18.120117,6.778671 18.120117,15.094955c0,8.31955 -8.136108,15.098206 -18.120117,15.098206c-9.979004,0 -18.119995,-6.778656 -18.119995,-15.098206c0,-8.316284 8.133057,-15.094955 18.119995,-15.094955zm-0.375,4.898636c6.920044,0 12.571045,4.854279 12.571045,10.817078c0,5.953949 -5.643066,10.817108 -12.571045,10.817108c-6.917969,0 -12.56897,-4.854309 -12.56897,-10.817108c0,-5.953949 5.642944,-10.817078 12.56897,-10.817078zm-158.262939,-85.30954c6.717041,0 12.203979,4.579346 12.203979,10.196304c0,5.620285 -5.479004,10.199615 -12.203979,10.199615c-6.718994,0 -12.197998,-4.57933 -12.197998,-10.199615c0,-5.616959 5.479004,-10.196304 12.197998,-10.196304zm0.552002,-3.713593c9.473022,0 17.192993,6.453888 17.192993,14.37439c0,7.913803 -7.719971,14.374344 -17.192993,14.374344c-9.463989,0 -17.192993,-6.451675 -17.192993,-14.374344c0,-7.911652 7.720947,-14.37439 17.192993,-14.37439zm30.875977,97.14978c8.553955,0 15.528076,6.462799 15.528076,14.37442c0,7.913818 -6.974121,14.374329 -15.528076,14.374329c-8.553955,0 -15.527954,-6.45166 -15.527954,-14.374329c0,-7.911621 6.973999,-14.37442 15.527954,-14.37442zm0.187012,4.940765c6.008057,0 10.903076,4.304413 10.903076,9.587708c0,5.276611 -4.89502,9.589905 -10.903076,9.589905c-6.000977,0 -10.905029,-4.304413 -10.905029,-9.589905c0,-5.283295 4.895996,-9.587708 10.905029,-9.587708zm-80.059082,22.18396c4.679077,0 8.5,3.350037 8.5,7.474884c0,4.117096 -3.812988,7.475952 -8.5,7.475952c-4.677979,0 -8.5,-3.352203 -8.5,-7.475952c0,-4.115997 3.822021,-7.474884 8.5,-7.474884zm-49.368042,-82.053726c4.373657,0 7.946167,3.815598 7.946167,8.499115c0,4.682465 -3.57251,8.495819 -7.946167,8.495819c-4.375488,0 -7.948181,-3.813354 -7.948181,-8.495819c0,-4.683517 3.572693,-8.499115 7.948181,-8.499115" id="path18" fill-rule="evenodd" fill="#ff7f00" stroke="#edc812" stroke-width="4"/>
  </g>
 </g>
</svg>